PathFileType	4	(X/Y/Z)	D:\Share\Shared_Data\Ergonomics\Sit To Stand Pertubation\S0\Perturbed STS.trc
DataRate	CameraRate	NumFrames	NumMarkers	Units	OrigDataRate	OrigDataStartFrame	OrigNumFrames	
100	100	16	18	m	100	7796	211
Frame#	Time	R_Heel			R_ASIS			R_Pelvis			V_Sacral			L_Pelvis			L_ASIS			Clavical			R_Acromium			L_Acromium			Sternum			Torso			R_Thigh_Med			R_Thigh_Lat			R_Thigh			R_Shank_Med			R_Shank_Lat			R_Shank			R_Toe			
		X1	Y1	Z1	X2	Y2	Z2	X3	Y3	Z3	X4	Y4	Z4	X5	Y5	Z5	X6	Y6	Z6	X7	Y7	Z7	X8	Y8	Z8	X9	Y9	Z9	X10	Y10	Z10	X11	Y11	Z11	X12	Y12	Z12	X13	Y13	Z13	X14	Y14	Z14	X15	Y15	Z15	X16	Y16	Z16	X17	Y17	Z17	X18	Y18	Z18	

7796	34.3	0.18480908	0.047653465	0.13492111	-0.066338409	0.74044513	0.13530533	-0.19559369	0.72078564	0.17672502	-0.31121259	0.68817023	-0.053748844	-0.16642734	0.71641083	-0.22979305	-0.046120132	0.7386698	-0.18252608	-0.00044220436	1.1027142	-0.025405745	-0.074356102	1.1768435	0.11358756	-0.074767815	1.1798025	-0.17950966	0.015097543	1.0060656	-0.040687336	-2.4777286e-05	1.0534893	-0.14675102	0.2823233	0.504677	0.060049606	0.25390366	0.52051038	0.1926931	0.17893106	0.65444952	0.10865629	0.28033939	0.11106571	0.093663902	0.22318498	0.09022213	0.18131526	0.24838054	0.31808875	0.2039442	0.40567084	0.050757729	0.12283276
7797	34.31	0.18451564	0.047623688	0.13504491	-0.065555504	0.7407395	0.13534435	-0.19523831	0.72109106	0.17672093	-0.31086206	0.68870331	-0.053781551	-0.16600206	0.71671344	-0.22982291	-0.045563774	0.73856696	-0.1825173	0.0031159239	1.1015603	-0.025400541	-0.0702397	1.1763168	0.11350935	-0.070543129	1.1791996	-0.1794874	0.017883106	1.0047888	-0.040639423	0.0032309999	1.0523263	-0.14670076	0.28216428	0.5045405	0.059909679	0.25389832	0.52047614	0.1925631	0.17898199	0.6543443	0.10851426	0.28002545	0.11098236	0.093690285	0.22292526	0.090199539	0.18137984	0.24818071	0.31808115	0.20388943	0.40533908	0.050639809	0.12286336
7798	34.32	0.1843125	0.047552223	0.13512547	-0.064663971	0.74110291	0.13537762	-0.19485023	0.72141327	0.1767164	-0.31048911	0.68927197	-0.05381723	-0.16554518	0.71703461	-0.229862	-0.044957645	0.73846185	-0.18250868	0.0067812891	1.1003365	-0.025396601	-0.065967529	1.1757462	0.11342982	-0.066165413	1.1785502	-0.17946205	0.020780382	1.0034568	-0.040590935	0.0066105528	1.051106	-0.14664651	0.28200348	0.50436282	0.059781712	0.25388799	0.52040131	0.19244107	0.17904698	0.65420465	0.10838073	0.27980487	0.11086457	0.093698341	0.22273788	0.090127335	0.18141319	0.24801282	0.31802936	0.20382611	0.40510086	0.050503468	0.12290335
7799	34.33	0.18420154	0.047443039	0.13516016	-0.063706913	0.74147589	0.13540114	-0.19442799	0.7217561	0.17671075	-0.31009253	0.68987964	-0.053856628	-0.16505325	0.71737354	-0.22990868	-0.0443032	0.73834894	-0.18249942	0.010554297	1.0990392	-0.025394583	-0.061534691	1.1751296	0.11334925	-0.061633354	1.1778523	-0.17943367	0.023791321	1.0020679	-0.040542435	0.010114537	1.0498276	-0.14658919	0.28183792	0.50414728	0.059666996	0.25387216	0.52028552	0.19232816	0.17912473	0.6540321	0.10826014	0.27968069	0.11071374	0.09368483	0.22262799	0.090008316	0.18141396	0.24788533	0.3179332	0.20375423	0.40496228	0.0503521	0.12294533
7800	34.34	0.18417262	0.047301991	0.13514806	-0.06274955	0.74177911	0.13541298	-0.19397101	0.72212299	0.17670436	-0.30967007	0.69052917	-0.053900928	-0.16452228	0.71772968	-0.22995947	-0.043601742	0.73822321	-0.18248972	0.014437538	1.0976669	-0.025394989	-0.056936848	1.1744648	0.11326784	-0.056945751	1.1771046	-0.17940279	0.026917475	1.000621	-0.040494865	0.013742847	1.0484905	-0.1465304	0.28166528	0.50389957	0.059565689	0.25385049	0.52013092	0.1922247	0.17921353	0.65382971	0.10815604	0.27964426	0.11053345	0.093646858	0.22258905	0.089848892	0.18138141	0.24780052	0.31779498	0.20367375	0.40491708	0.050190182	0.12298408
7801	34.35	0.18420572	0.047134975	0.13509064	-0.0618606	0.74194141	0.13541675	-0.19347856	0.72251611	0.17669812	-0.30921896	0.69122266	-0.053951374	-0.16394855	0.71810309	-0.23001096	-0.042853619	0.73808124	-0.18248047	0.01843639	1.0962212	-0.025398474	-0.052170242	1.1737496	0.11318565	-0.052101086	1.1763054	-0.17937042	0.030159521	0.9991145	-0.040449242	0.017494905	1.047094	-0.14647205	0.28148465	0.50362729	0.059476959	0.25382227	0.5199408	0.19213051	0.17931186	0.65360229	0.10807101	0.27967639	0.11033003	0.09358242	0.22260379	0.089658432	0.18131554	0.24775333	0.31762012	0.20358453	0.40494849	0.050023991	0.1230171
7802	34.36	0.18427539	0.046946861	0.13499149	-0.061095451	0.74191711	0.13542073	-0.19294891	0.72293683	0.17669217	-0.30873682	0.69196259	-0.054008812	-0.16332938	0.71849469	-0.23006085	-0.042058563	0.73792218	-0.18247255	0.022560198	1.0947083	-0.025406197	-0.047231918	1.1729822	0.11310258	-0.047097092	1.1754531	-0.1793383	0.033516918	0.99754681	-0.040406517	0.021369642	1.0456371	-0.14641594	0.28129697	0.5033396	0.059399235	0.25378761	0.5197207	0.19204492	0.17941896	0.65335699	0.10800671	0.2797511	0.11011221	0.09349102	0.22264842	0.089448555	0.18121771	0.24773143	0.31741769	0.20348659	0.40503302	0.049861485	0.1230441
7803	34.37	0.18435608	0.046741646	0.134856	-0.060483162	0.74169214	0.1354341	-0.19237923	0.72338562	0.17668582	-0.30822098	0.69275073	-0.054073071	-0.1626633	0.71890582	-0.23010803	-0.041216343	0.73774677	-0.18246616	0.026821241	1.0931355	-0.025419449	-0.042120037	1.1721603	0.11301837	-0.041930809	1.174546	-0.17930881	0.036988396	0.99591595	-0.040367851	0.025365824	1.0441173	-0.14636365	0.28110526	0.50304706	0.059330368	0.25375026	0.51947913	0.19196742	0.17953506	0.65310278	0.10796434	0.27984009	0.10989014	0.093374352	0.22269832	0.089231964	0.18109117	0.24771718	0.31719962	0.2033804	0.40514542	0.049711094	0.12306576
7804	34.38	0.18442715	0.046523369	0.13469101	-0.060007645	0.74129358	0.13546416	-0.1917664	0.72386322	0.17667853	-0.30766913	0.6935885	-0.054142647	-0.16194992	0.71933771	-0.23015179	-0.040326363	0.73755615	-0.18246043	0.031231054	1.0915074	-0.025439358	-0.036833225	1.1712805	0.11293239	-0.036599419	1.173582	-0.17928442	0.040572926	0.99421973	-0.040334782	0.029482061	1.0425322	-0.14631685	0.28091394	0.50276028	0.059267853	0.25371843	0.51922772	0.1918974	0.17966118	0.65284961	0.10794497	0.27991794	0.10967381	0.093236458	0.22273312	0.089020615	0.18094124	0.24769118	0.31697946	0.20326743	0.40526263	0.049580013	0.12308295
7805	34.39	0.18447568	0.046296989	0.1345049	-0.059594166	0.7407981	0.13551489	-0.19110771	0.72437006	0.17667065	-0.30707889	0.69447705	-0.054214775	-0.16118958	0.71979181	-0.23019112	-0.039387363	0.73735114	-0.18245409	0.035797371	1.0898218	-0.025467339	-0.031369127	1.1703401	0.11284332	-0.031100817	1.1725583	-0.17926755	0.044270336	0.99245575	-0.040309074	0.033716228	1.0408781	-0.14627719	0.28072791	0.5024888	0.059209301	0.25370097	0.51897894	0.19183409	0.1797993	0.6526073	0.10794973	0.27996695	0.10947137	0.093083168	0.22274054	0.088823898	0.1807744	0.2476376	0.31676984	0.20314987	0.40536734	0.049472687	0.12309664
7806	34.4	0.18449727	0.046068989	0.13430807	-0.059130711	0.74031146	0.13558792	-0.19040062	0.72490613	0.17666357	-0.30644824	0.69541766	-0.054286118	-0.1603829	0.72027002	-0.23022519	-0.0383979	0.73713104	-0.18244588	0.040523804	1.088071	-0.025505657	-0.025723869	1.1693362	0.11274902	-0.025433659	1.1714705	-0.17925998	0.048081856	0.99062213	-0.040292637	0.038065281	1.0391516	-0.146246	0.2805506	0.50223886	0.059152985	0.25370407	0.51874347	0.19177658	0.17995187	0.65238318	0.10797836	0.27997952	0.1092877	0.092921089	0.22271751	0.088647057	0.18059729	0.24754907	0.31658011	0.2030302	0.40544986	0.049390228	0.12310828
7807	34.41	0.1844953	0.045847435	0.13411284	-0.05851506	0.7399248	0.13568474	-0.18964281	0.72547076	0.17665886	-0.30577579	0.69641217	-0.054353718	-0.15953004	0.72077411	-0.23025407	-0.037356667	0.73689514	-0.18243471	0.045410843	1.0862458	-0.025557129	-0.019893291	1.1682668	0.11264675	-0.019597301	1.1703125	-0.17926236	0.052010101	0.98871753	-0.040287506	0.04252599	1.0373495	-0.14622403	0.28038354	0.50201321	0.05909811	0.25373042	0.51852844	0.1917244	0.18012128	0.65218079	0.10802777	0.27995798	0.10912402	0.092756584	0.22266878	0.088490807	0.18041557	0.24742914	0.31641452	0.20291078	0.405509	0.049330822	0.12311977
7808	34.42	0.18447809	0.045639751	0.13393059	-0.057682915	0.7396911	0.13580798	-0.18883226	0.72606366	0.17665744	-0.30506003	0.69746277	-0.054415668	-0.15863008	0.72130573	-0.23027888	-0.036262871	0.73664209	-0.18241907	0.050456703	1.0843391	-0.025624273	-0.013874502	1.1671294	0.11253347	-0.013592146	1.1690785	-0.17927365	0.05605806	0.98674133	-0.040295547	0.047096439	1.0354684	-0.14621161	0.28022662	0.50181006	0.059044926	0.2537795	0.51833716	0.19167764	0.18030931	0.65199969	0.10809228	0.2799119	0.10897815	0.09259465	0.22260439	0.088351974	0.18023401	0.24729099	0.31627176	0.20279378	0.40555042	0.049290573	0.12313331
7809	34.43	0.18445506	0.045448708	0.13376718	-0.056606464	0.73962933	0.13596017	-0.18796716	0.72668518	0.17665938	-0.30429919	0.69857214	-0.054471428	-0.15768091	0.72186597	-0.23030144	-0.035116692	0.73637048	-0.18239717	0.055658089	1.0823464	-0.025708536	-0.0076666694	1.1659211	0.1124068	-0.0074200053	1.1677618	-0.17929161	0.060228283	0.98469305	-0.04031776	0.05177763	1.0335062	-0.14620868	0.28007846	0.50162436	0.058994587	0.25384805	0.5181673	0.19163687	0.18051746	0.65183661	0.10816585	0.27985403	0.10884517	0.092438377	0.22253586	0.088224754	0.18005658	0.24715318	0.31614566	0.202681	0.40558408	0.049264465	0.12315112
7810	34.44	0.18443362	0.045270042	0.13362027	-0.055285721	0.73973499	0.13614163	-0.18704527	0.72733691	0.17666408	-0.30349069	0.6997428	-0.054521545	-0.15667921	0.72245483	-0.23032359	-0.033920029	0.73607812	-0.18236714	0.06101088	1.0802656	-0.025809849	-0.0012711123	1.164639	0.11226545	-0.001084022	1.1663569	-0.17931331	0.064522423	0.98257251	-0.040353882	0.056573441	1.0314628	-0.14621521	0.27993759	0.50144772	0.058948856	0.25393033	0.51801172	0.19160271	0.1807469	0.65168665	0.10824399	0.27979651	0.10871838	0.092288857	0.2224733	0.088101906	0.1798867	0.24703404	0.31602676	0.20257396	0.40562042	0.049247536	0.12317544
7811	34.45	0.18441783	0.045094101	0.13348215	-0.053744701	0.73998621	0.13634842	-0.18606351	0.72802142	0.17667088	-0.30263123	0.70097711	-0.0545672	-0.15562064	0.72307159	-0.23034668	-0.032676678	0.73576141	-0.18232712	0.066510849	1.0780957	-0.025926668	0.0053091669	1.1632808	0.11210932	0.0054112682	1.1648604	-0.17933543	0.068940063	0.98037927	-0.040402584	0.061488926	1.0293383	-0.14623143	0.27980249	0.50127017	0.05890958	0.25401976	0.51785828	0.19157576	0.18099796	0.65154468	0.10832474	0.27974805	0.10859042	0.092145798	0.22242299	0.087975647	0.17972699	0.24694666	0.31590442	0.20247372	0.40566788	0.04923587	0.12320837
